<svg width="34" height="34" viewBox="0 0 34 34" fill="none" xmlns="http://www.w3.org/2000/svg">
<path fill-rule="evenodd" clip-rule="evenodd" d="M2.77337 31.225C5.21671 33.6667 9.14337 33.6667 17 33.6667C24.8567 33.6667 28.785 33.6667 31.225 31.225C33.6667 28.7867 33.6667 24.8567 33.6667 17C33.6667 9.14333 33.6667 5.215 31.225 2.77333C28.7867 0.333334 24.8567 0.333334 17 0.333334C9.14337 0.333334 5.21504 0.333334 2.77337 2.77333C0.333374 5.21667 0.333374 9.14333 0.333374 17C0.333374 24.8567 0.333374 28.785 2.77337 31.225ZM12.8334 11.5833C11.7621 11.5833 10.7148 11.901 9.82404 12.4962C8.93327 13.0914 8.239 13.9374 7.82903 14.9271C7.41905 15.9169 7.31178 17.006 7.52079 18.0567C7.72979 19.1075 8.24568 20.0726 9.00321 20.8302C9.76075 21.5877 10.7259 22.1036 11.7766 22.3126C12.8274 22.5216 13.9165 22.4143 14.9062 22.0043C15.896 21.5944 16.742 20.9001 17.3372 20.0093C17.9324 19.1186 18.25 18.0713 18.25 17C18.25 16.6685 18.3817 16.3505 18.6162 16.1161C18.8506 15.8817 19.1685 15.75 19.5 15.75C19.8316 15.75 20.1495 15.8817 20.3839 16.1161C20.6183 16.3505 20.75 16.6685 20.75 17C20.75 18.5658 20.2857 20.0964 19.4158 21.3983C18.5459 22.7002 17.3095 23.7149 15.863 24.314C14.4164 24.9132 12.8246 25.07 11.2889 24.7645C9.75323 24.4591 8.34261 23.7051 7.23545 22.5979C6.12828 21.4908 5.37429 20.0801 5.06882 18.5445C4.76336 17.0088 4.92013 15.417 5.51933 13.9704C6.11852 12.5238 7.13322 11.2874 8.43511 10.4175C9.737 9.54764 11.2676 9.08333 12.8334 9.08333C13.1649 9.08333 13.4828 9.21503 13.7173 9.44945C13.9517 9.68387 14.0834 10.0018 14.0834 10.3333C14.0834 10.6649 13.9517 10.9828 13.7173 11.2172C13.4828 11.4516 13.1649 11.5833 12.8334 11.5833ZM26.5834 17C26.5834 18.4366 26.0127 19.8143 24.9969 20.8302C23.981 21.846 22.6033 22.4167 21.1667 22.4167C20.8352 22.4167 20.5172 22.5484 20.2828 22.7828C20.0484 23.0172 19.9167 23.3351 19.9167 23.6667C19.9167 23.9982 20.0484 24.3161 20.2828 24.5506C20.5172 24.785 20.8352 24.9167 21.1667 24.9167C22.7325 24.9167 24.2631 24.4524 25.565 23.5825C26.8669 22.7126 27.8816 21.4762 28.4808 20.0296C29.0799 18.583 29.2367 16.9912 28.9313 15.4555C28.6258 13.9199 27.8718 12.5092 26.7646 11.4021C25.6575 10.2949 24.2469 9.54092 22.7112 9.23545C21.1755 8.92998 19.5837 9.08676 18.1371 9.68595C16.6905 10.2851 15.4541 11.2998 14.5842 12.6017C13.7143 13.9036 13.25 15.4342 13.25 17C13.25 17.3315 13.3817 17.6495 13.6162 17.8839C13.8506 18.1183 14.1685 18.25 14.5 18.25C14.8316 18.25 15.1495 18.1183 15.3839 17.8839C15.6183 17.6495 15.75 17.3315 15.75 17C15.75 15.5634 16.3207 14.1857 17.3365 13.1698C18.3524 12.154 19.7301 11.5833 21.1667 11.5833C22.6033 11.5833 23.981 12.154 24.9969 13.1698C26.0127 14.1857 26.5834 15.5634 26.5834 17Z" fill="#633CFF"/>
</svg>
